<?xml version="1.0" encoding="UTF-8" standalone="no"?>
<!-- Created with Inkscape (http://www.inkscape.org/) -->

<svg
   width="434.73801"
   height="218.15695"
   viewBox="0 0 115.02443 57.720693"
   version="1.1"
   id="svg1"
   inkscape:version="1.3.2 (091e20e, 2023-11-25)"
   sodipodi:docname="logo.svg"
   xmlns:inkscape="http://www.inkscape.org/namespaces/inkscape"
   xmlns:sodipodi="http://sodipodi.sourceforge.net/DTD/sodipodi-0.dtd"
   xmlns="http://www.w3.org/2000/svg"
   xmlns:svg="http://www.w3.org/2000/svg">
  <sodipodi:namedview
     id="namedview1"
     pagecolor="#505050"
     bordercolor="#eeeeee"
     borderopacity="1"
     inkscape:showpageshadow="0"
     inkscape:pageopacity="0"
     inkscape:pagecheckerboard="0"
     inkscape:deskcolor="#505050"
     inkscape:document-units="mm"
     inkscape:zoom="1.000377"
     inkscape:cx="197.42557"
     inkscape:cy="129.95101"
     inkscape:window-width="1914"
     inkscape:window-height="1014"
     inkscape:window-x="0"
     inkscape:window-y="0"
     inkscape:window-maximized="1"
     inkscape:current-layer="layer1" />
  <defs
     id="defs1" />
  <g
     inkscape:label="Layer 1"
     inkscape:groupmode="layer"
     id="layer1"
     transform="translate(-39.419733,-72.081437)">
    <g
       id="g2"
       transform="matrix(0.89057753,0,0,0.88843543,10.606533,11.261526)"
       style="stroke-width:1.12422">
      <path
         d="m 53.837374,73.527137 v 3.97574 h -8.299721 v 4.29496 h 6.210281 v 3.85966 h -6.210281 v 8.241681 h -4.96242 V 73.527137 Z m 16.599402,20.575181 q -2.872981,0 -5.281641,-1.33492 -2.37964,-1.33492 -3.80162,-3.714561 -1.39296,-2.40866 -1.39296,-5.39772 0,-2.98906 1.39296,-5.3687 1.42198,-2.37964 3.80162,-3.71456 2.40866,-1.33492 5.281641,-1.33492 2.87298,0 5.25262,1.33492 2.40866,1.33492 3.7726,3.71456 1.39296,2.37964 1.39296,5.3687 0,2.98906 -1.39296,5.39772 -1.39296,2.379641 -3.7726,3.714561 -2.37964,1.33492 -5.25262,1.33492 z m 0,-4.527121 q 2.43768,0 3.88868,-1.62512 1.48002,-1.62512 1.48002,-4.29496 0,-2.69886 -1.48002,-4.29496 -1.451,-1.62512 -3.88868,-1.62512 -2.466701,0 -3.946721,1.5961 -1.451,1.5961 -1.451,4.32398 0,2.69886 1.451,4.32398 1.48002,1.5961 3.946721,1.5961 z m 27.917209,4.323981 -4.23692,-7.690301 h -1.18982 v 7.690301 h -4.96242 V 73.527137 h 8.32874 q 2.40866,0 4.091815,0.84158 1.71218,0.84158 2.55376,2.3216 0.84158,1.451 0.84158,3.25024 0,2.0314 -1.1608,3.6275 -1.13178,1.5961 -3.366315,2.26356 l 4.701235,8.067561 z m -5.42674,-11.201721 h 3.07612 q 1.36394,0 2.0314,-0.66746 0.69648,-0.66746 0.69648,-1.8863 0,-1.1608 -0.69648,-1.82826 -0.66746,-0.66746 -2.0314,-0.66746 h -3.07612 z m 30.122715,11.201721 -6.84872,-8.996201 v 8.996201 h -4.96242 V 73.527137 h 4.96242 v 8.93816 l 6.79068,-8.93816 h 5.83302 l -7.89344,9.98288 8.18364,10.389161 z m 30.23878,-20.372041 -7.05186,13.6394 v 6.732641 h -4.96242 v -6.732641 l -7.05186,-13.6394 h 5.62988 l 3.94672,8.53188 3.9177,-8.53188 z"
         id="text1"
         style="font-weight:bold;font-size:29.02px;line-height:1.2;font-family:Poppins;-inkscape-font-specification:'Poppins Bold';letter-spacing:4.35299px;fill:#6effc0;stroke:#5c9aff;stroke-width:2.71049383;stroke-linecap:round;stroke-linejoin:round;paint-order:stroke fill markers;stroke-dasharray:none"
         aria-label="FORKY" />
      <path
         d="m 78.617438,102.8072 0.648598,7.87466 h -0.648598 q -0.982162,-2.9438 -2.538797,-4.4341 -2.242295,-2.15265 -5.763254,-2.15265 -4.799623,0 -7.301357,3.77175 -2.094044,3.18298 -2.094044,7.58028 0,3.56936 1.389852,6.51316 1.389852,2.9438 3.632147,4.32371 2.260827,1.36151 4.632841,1.36151 1.389852,0 2.687048,-0.34958 1.297196,-0.34957 2.501734,-1.03033 v -7.21231 q 0,-1.87667 -0.296502,-2.44704 -0.27797,-0.58876 -0.889505,-0.88313 -0.593004,-0.31279 -2.112576,-0.31279 v -0.69915 h 9.728966 v 0.69915 h -0.463284 q -1.445446,0 -1.982856,0.95674 -0.370627,0.68075 -0.370627,2.68622 v 7.63548 q -2.131107,1.14073 -4.20662,1.67429 -2.075513,0.53356 -4.61431,0.53356 -7.282825,0 -11.063224,-4.63648 -2.835298,-3.47737 -2.835298,-8.02187 0,-3.29337 1.593697,-6.31076 1.890199,-3.58776 5.188782,-5.51963 2.761173,-1.60069 6.52304,-1.60069 1.371321,0 2.483202,0.22078 1.130414,0.22079 3.187395,0.97514 1.037757,0.38637 1.389853,0.38637 0.352096,0 0.593003,-0.31278 0.259439,-0.33118 0.315033,-1.26951 z m 14.550827,21.94971 q 0.870973,0 1.463977,0.60716 0.593004,0.58876 0.593004,1.43511 0,0.84634 -0.611535,1.4535 -0.593004,0.58876 -1.445446,0.58876 -0.852443,0 -1.463978,-0.58876 -0.593003,-0.60716 -0.593003,-1.4535 0,-0.86474 0.593003,-1.45351 0.611535,-0.58876 1.463978,-0.58876 z M 121.00608,102.8072 v 8.62901 h -0.68566 q -0.33357,-2.48383 -1.20454,-3.95573 -0.85245,-1.4719 -2.44614,-2.33665 -1.5937,-0.86474 -3.29858,-0.86474 -1.92726,0 -3.1874,1.17753 -1.26013,1.15912 -1.26013,2.64942 0,1.14072 0.79685,2.07906 1.14894,1.37991 5.46675,3.67975 3.52096,1.87667 4.79962,2.8886 1.2972,0.99354 1.98286,2.35504 0.70419,1.36151 0.70419,2.85181 0,2.83341 -2.22376,4.89408 -2.20523,2.04225 -5.68913,2.04225 -1.09335,0 -2.05698,-0.16558 -0.57447,-0.092 -2.39055,-0.66236 -1.79754,-0.58876 -2.27935,-0.58876 -0.46329,0 -0.74126,0.27598 -0.25944,0.27598 -0.38915,1.14072 h -0.68567 v -8.55541 h 0.68567 q 0.4818,2.68621 1.29719,4.02932 0.81538,1.32471 2.4832,2.20785 1.68635,0.88314 3.68774,0.88314 2.31642,0 3.65068,-1.21432 1.35279,-1.21431 1.35279,-2.8702 0,-0.91995 -0.51888,-1.85828 -0.50035,-0.93833 -1.57517,-1.74788 -0.72272,-0.55197 -3.94718,-2.33664 -3.22445,-1.80308 -4.59578,-2.87021 -1.35279,-1.06712 -2.05697,-2.35504 -0.7042,-1.28791 -0.7042,-2.83341 0,-2.68622 2.07551,-4.61809 2.07552,-1.95026 5.28144,-1.95026 2.00139,0 4.24368,0.97513 1.03776,0.45997 1.46398,0.45997 0.48182,0 0.77832,-0.27598 0.31503,-0.29438 0.50035,-1.15912 z m 14.14314,21.94971 q 0.87098,0 1.46397,0.60716 0.59301,0.58876 0.59301,1.43511 0,0.84634 -0.61153,1.4535 -0.59301,0.58876 -1.44545,0.58876 -0.85244,0 -1.46398,-0.58876 -0.59301,-0.60716 -0.59301,-1.4535 0,-0.86474 0.59301,-1.45351 0.61154,-0.58876 1.46398,-0.58876 z"
         id="text2"
         style="font-size:37.8162px;line-height:1.2;font-family:'Times New Roman';-inkscape-font-specification:'Times New Roman, ';letter-spacing:5.67243px;fill:#ffffff;stroke:#000000;stroke-width:2.03596;stroke-linecap:round;stroke-linejoin:round;paint-order:stroke fill markers"
         aria-label="G.S." />
    </g>
  </g>
</svg>
